SplineFontDB: 3.2
FontName: AbstractHand-drawingFont
FullName: AbstractHand-drawingFont
FamilyName: AbstractHand-drawingFont
Weight: Regular
Copyright: Copyright (c) 2025, SunsetFont. SSFT. JGZ_YES.
UComments: "2025-11-1: Created with FontForge (http://fontforge.org)"
Version: 001.000
ItalicAngle: 0
UnderlinePosition: -100
UnderlineWidth: 50
Ascent: 800
Descent: 200
InvalidEm: 0
LayerCount: 2
Layer: 0 0 "Back" 1
Layer: 1 0 "Fore" 0
XUID: [1021 915 1390815391 13048]
StyleMap: 0x0000
FSType: 0
OS2Version: 0
OS2_WeightWidthSlopeOnly: 0
OS2_UseTypoMetrics: 1
CreationTime: 1762004720
ModificationTime: 1762006849
OS2TypoAscent: 0
OS2TypoAOffset: 1
OS2TypoDescent: 0
OS2TypoDOffset: 1
OS2TypoLinegap: 90
OS2WinAscent: 0
OS2WinAOffset: 1
OS2WinDescent: 0
OS2WinDOffset: 1
HheadAscent: 0
HheadAOffset: 1
HheadDescent: 0
HheadDOffset: 1
MarkAttachClasses: 1
DEI: 91125
Encoding: ISO8859-1
UnicodeInterp: none
NameList: AGL For New Fonts
DisplaySize: -48
AntiAlias: 1
FitToEm: 0
WinInfo: 0 38 12
BeginPrivate: 0
EndPrivate
BeginChars: 256 94

StartChar: zero
Encoding: 48 48 0
Width: 528
Flags: HW
LayerCount: 2
Fore
SplineSet
183 578 m 29
 97 364 l 29
 301 160 l 29
 401 156 l 29
 461 340 l 29
 433 456 l 29
 183 578 l 29
224 484 m 29
 396 370 l 29
 338 194 l 29
 200 368 l 29
 224 484 l 29
EndSplineSet
EndChar

StartChar: one
Encoding: 49 49 1
Width: 1000
Flags: H
LayerCount: 2
Fore
SplineSet
475 648 m 29
 472 -6 l 25
 571 3 l 25
 583 399 l 25
 631 435 l 25
 598 534 l 25
 550 648 l 25
 478 756 l 25
 301 750 l 25
 262 663 l 25
 319 618 l 25
 475 648 l 29
EndSplineSet
EndChar

StartChar: three
Encoding: 51 51 2
Width: 1000
Flags: H
LayerCount: 2
Fore
SplineSet
234 668 m 29
 502 736 l 25
 738 548 l 25
 710 392 l 25
 562 220 l 25
 346 236 l 25
 562 128 l 25
 682 -40 l 25
 562 -116 l 25
 378 -132 l 25
 134 72 l 25
 154 144 l 25
 210 76 l 25
 350 -32 l 25
 466 -52 l 25
 450 40 l 25
 326 120 l 25
 234 296 l 25
 358 328 l 25
 554 456 l 25
 522 548 l 25
 350 632 l 25
 234 668 l 29
EndSplineSet
EndChar

StartChar: two
Encoding: 50 50 3
Width: 1000
Flags: H
LayerCount: 2
Fore
SplineSet
236 619 m 29
 329 682 l 25
 572 661 l 25
 539 517 l 25
 491 337 l 25
 359 223 l 25
 164 142 l 25
 383 115 l 25
 665 133 l 25
 791 154 l 25
 800 61 l 25
 620 34 l 25
 476 31 l 25
 167 52 l 25
 50 112 l 25
 68 202 l 25
 143 274 l 25
 284 337 l 25
 431 475 l 25
 476 604 l 25
 368 592 l 25
 254 562 l 25
 236 619 l 29
EndSplineSet
EndChar

StartChar: four
Encoding: 52 52 4
Width: 1000
Flags: H
LayerCount: 2
Fore
SplineSet
475 654 m 29
 415 498 l 25
 328 309 l 25
 259 6 l 25
 298 -48 l 25
 397 -33 l 25
 433 21 l 25
 451 108 l 25
 457 192 l 25
 484 330 l 25
 508 513 l 25
 520 585 l 25
 475 654 l 29
370 681 m 25
 199 486 l 25
 112 270 l 25
 172 177 l 25
 427 105 l 25
 706 120 l 25
 778 156 l 25
 709 237 l 25
 625 264 l 25
 520 237 l 25
 232 306 l 25
 259 372 l 25
 298 477 l 25
 355 576 l 25
 370 681 l 25
EndSplineSet
EndChar

StartChar: five
Encoding: 53 53 5
Width: 1000
Flags: H
LayerCount: 2
Fore
SplineSet
400 720 m 29
 481 678 l 25
 505 588 l 25
 466 552 l 25
 361 597 l 25
 226 645 l 25
 214 696 l 25
 235 747 l 25
 298 747 l 25
 352 735 l 25
 400 720 l 29
190 783 m 9
 85 567 l 25
 118 411 l 25
 316 369 l 25
 523 312 l 25
 562 165 l 25
 517 66 l 25
 436 -24 l 25
 256 0 l 25
 112 0 l 25
 61 138 l 25
 -11 48 l 25
 40 -48 l 25
 184 -72 l 25
 439 -63 l 25
 562 -9 l 25
 628 87 l 25
 622 210 l 25
 535 369 l 25
 349 468 l 25
 220 525 l 25
 223 660 l 17
 202.073170732 738 l 1
 190 783 l 9
EndSplineSet
EndChar

StartChar: six
Encoding: 54 54 6
Width: 528
Flags: HW
LayerCount: 2
Fore
SplineSet
156 812 m 29
 116 592 l 25
 90 440 l 25
 84 384 l 25
 104 392 l 25
 134 426 l 25
 170 484 l 25
 204 622 l 25
 222 720 l 25
 156 812 l 29
183 578 m 25
 97 364 l 25
 301 160 l 25
 401 156 l 25
 461 340 l 25
 433 456 l 25
 183 578 l 25
224 484 m 25
 396 370 l 25
 338 194 l 25
 200 368 l 25
 224 484 l 25
EndSplineSet
EndChar

StartChar: seven
Encoding: 55 55 7
Width: 1000
Flags: H
LayerCount: 2
Fore
SplineSet
253 717 m 29
 562 675 l 25
 778 603 l 25
 751 393 l 25
 730 51 l 25
 685 -126 l 25
 535 -207 l 25
 418 -207 l 25
 373 -168 l 25
 409 -114 l 25
 499 -60 l 25
 583 -6 l 25
 625 183 l 25
 622 393 l 25
 469 567 l 25
 253 621 l 25
 235 717 l 25
 253 717 l 29
EndSplineSet
EndChar

StartChar: eight
Encoding: 56 56 8
Width: 528
Flags: HW
LayerCount: 2
Fore
SplineSet
251 720 m 29
 326 735 l 25
 368 591 l 25
 251 720 l 29
178 578 m 25
 146 786 l 25
 390 810 l 25
 460 728 l 25
 480 554 l 25
 444 482 l 25
 424 454 l 25
 178 578 l 25
183 578 m 25
 97 364 l 25
 301 160 l 25
 401 156 l 25
 461 340 l 25
 433 456 l 25
 183 578 l 25
224 484 m 25
 396 370 l 25
 338 194 l 25
 200 368 l 25
 224 484 l 25
EndSplineSet
EndChar

StartChar: nine
Encoding: 57 57 9
Width: 528
Flags: HW
LayerCount: 2
Fore
SplineSet
396 148 m 29
 234 -32 l 25
 178 -16 l 25
 186 76 l 25
 284 140 l 25
 294 168 l 25
 396 148 l 29
183 578 m 25
 97 364 l 25
 301 160 l 25
 401 156 l 25
 461 340 l 25
 433 456 l 25
 183 578 l 25
224 484 m 25
 396 370 l 25
 338 194 l 25
 200 368 l 25
 224 484 l 25
EndSplineSet
EndChar

StartChar: colon
Encoding: 58 58 10
Width: 1000
Flags: H
LayerCount: 2
Fore
SplineSet
506 377 m 29
 364 369 l 25
 386 261 l 25
 532 195 l 25
 540 313 l 25
 506 377 l 29
440 665 m 25
 404 607 l 25
 554 551 l 25
 584 605 l 25
 554 697 l 25
 440 665 l 25
EndSplineSet
EndChar

StartChar: semicolon
Encoding: 59 59 11
Width: 1000
Flags: H
LayerCount: 2
Fore
SplineSet
511 342 m 29
 508 225 l 25
 466 144 l 25
 400 84 l 25
 490 57 l 25
 568 72 l 25
 604 171 l 25
 580 276 l 25
 511 342 l 29
556 684 m 25
 478 582 l 25
 598 528 l 25
 676 579 l 25
 592 675 l 25
 556 684 l 25
EndSplineSet
EndChar

StartChar: less
Encoding: 60 60 12
Width: 1000
Flags: H
LayerCount: 2
Fore
SplineSet
670 615 m 29
 421 498 l 25
 250 369 l 25
 166 246 l 25
 199 99 l 25
 445 -12 l 25
 628 0 l 25
 763 24 l 25
 778 126 l 25
 586 63 l 25
 355 138 l 25
 280 270 l 25
 460 372 l 25
 667 450 l 25
 670 615 l 29
EndSplineSet
EndChar

StartChar: equal
Encoding: 61 61 13
Width: 1000
Flags: H
LayerCount: 2
Fore
SplineSet
184 237 m 29
 832 276 l 25
 820 135 l 25
 607 42 l 25
 457 -36 l 25
 295 27 l 25
 223 63 l 25
 184 237 l 29
208 633 m 25
 595 609 l 25
 622 489 l 25
 421 468 l 25
 190 450 l 25
 184 636 l 25
 208 633 l 25
EndSplineSet
EndChar

StartChar: greater
Encoding: 62 62 14
Width: 1000
Flags: H
LayerCount: 2
Fore
SplineSet
217 507 m 29
 511 528 l 25
 724 453 l 25
 823 291 l 25
 862 150 l 25
 742 -51 l 25
 547 -117 l 25
 385 -132 l 25
 151 -108 l 25
 106 -6 l 25
 433 0 l 25
 730 69 l 25
 583 246 l 25
 466 363 l 25
 235 420 l 25
 217 507 l 29
EndSplineSet
EndChar

StartChar: question
Encoding: 63 63 15
Width: 1000
Flags: H
LayerCount: 2
Fore
SplineSet
595 -66 m 29
 538 -132 l 25
 622 -153 l 25
 700 -87 l 25
 595 -66 l 29
226 570 m 25
 397 768 l 25
 673 699 l 25
 871 474 l 25
 745 303 l 25
 679 144 l 25
 685 12 l 25
 580 24 l 25
 574 192 l 25
 649 288 l 25
 811 498 l 25
 676 549 l 25
 475 690 l 25
 352 555 l 25
 196 570 l 25
 226 570 l 25
EndSplineSet
EndChar

StartChar: at
Encoding: 64 64 16
Width: 1000
Flags: H
LayerCount: 2
Fore
SplineSet
475 297 m 29
 574 264 l 25
 685 321 l 25
 676 519 l 25
 535 705 l 25
 325 705 l 25
 172 597 l 25
 16 426 l 25
 193 183 l 25
 394 72 l 25
 616 36 l 25
 691 93 l 25
 610 168 l 25
 490 174 l 25
 202 282 l 25
 136 414 l 25
 217 510 l 25
 406 621 l 25
 544 540 l 25
 571 315 l 25
 475 297 l 29
388 429 m 25
 319 372 l 25
 376 330 l 25
 400 375 l 25
 388 429 l 25
397 528 m 25
 217 387 l 25
 328 300 l 25
 472 288 l 25
 484 411 l 25
 397 528 l 25
EndSplineSet
EndChar

StartChar: A
Encoding: 65 65 17
Width: 1000
Flags: H
LayerCount: 2
Fore
SplineSet
472 696 m 29
 112 27 l 25
 217 45 l 25
 373 297 l 25
 439 441 l 25
 496 402 l 25
 565 321 l 25
 610 264 l 25
 601 180 l 25
 640 75 l 25
 685 51 l 25
 697 186 l 25
 658 336 l 25
 574 456 l 25
 463 501 l 25
 358 492 l 25
 550 534 l 25
 580 498 l 25
 499 684 l 25
 472 696 l 29
EndSplineSet
EndChar

StartChar: B
Encoding: 66 66 18
Width: 1000
Flags: H
LayerCount: 2
Fore
SplineSet
382 732 m 29
 352 471 l 25
 286 186 l 25
 343 -36 l 25
 505 -30 l 25
 619 39 l 25
 700 168 l 25
 592 309 l 25
 487 450 l 25
 394 393 l 25
 373 327 l 25
 349 192 l 25
 406 54 l 25
 505 69 l 25
 568 180 l 25
 496 246 l 25
 493 339 l 25
 592 264 l 25
 646 156 l 25
 562 90 l 25
 466 21 l 25
 328 63 l 25
 340 153 l 25
 349 282 l 25
 394 438 l 25
 466 498 l 25
 568 516 l 25
 583 609 l 25
 538 732 l 25
 409 744 l 25
 397 660 l 25
 385 561 l 25
 481 561 l 25
 532 606 l 25
 484 666 l 25
 382 732 l 29
EndSplineSet
EndChar

StartChar: C
Encoding: 67 67 19
Width: 1000
Flags: H
LayerCount: 2
Fore
SplineSet
760 693 m 29
 517 711 l 25
 217 534 l 25
 115 264 l 25
 388 57 l 25
 604 -81 l 25
 814 159 l 25
 589 363 l 25
 433 222 l 25
 211 366 l 25
 388 576 l 25
 739 663 l 25
 760 693 l 29
EndSplineSet
EndChar

StartChar: D
Encoding: 68 68 20
Width: 1000
Flags: H
LayerCount: 2
Fore
SplineSet
376 726 m 29
 328 408 l 25
 259 81 l 25
 319 -99 l 25
 484 -102 l 25
 667 -36 l 25
 787 90 l 25
 766 378 l 25
 622 681 l 25
 439 750 l 25
 466 630 l 25
 607 510 l 25
 676 378 l 25
 703 144 l 25
 625 18 l 25
 451 54 l 25
 403 204 l 25
 385 360 l 25
 388 534 l 25
 415 612 l 25
 427 666 l 25
 376 726 l 29
EndSplineSet
EndChar

StartChar: E
Encoding: 69 69 21
Width: 1000
Flags: H
LayerCount: 2
Fore
SplineSet
292 663 m 29
 667 582 l 25
 562 435 l 25
 352 522 l 25
 352 321 l 25
 541 309 l 25
 616 222 l 25
 562 165 l 25
 436 153 l 25
 364 165 l 25
 331 48 l 25
 646 69 l 25
 652 -90 l 25
 418 -81 l 25
 229 -24 l 25
 160 522 l 25
 292 663 l 29
EndSplineSet
EndChar

StartChar: F
Encoding: 70 70 22
Width: 1000
Flags: H
LayerCount: 2
Fore
SplineSet
313 702 m 29
 916 627 l 25
 820 492 l 25
 670 456 l 25
 274 549 l 25
 313 348 l 25
 562 366 l 25
 823 330 l 25
 796 222 l 25
 511 198 l 25
 433 198 l 25
 319 114 l 25
 376 0 l 25
 364 -132 l 25
 241 -108 l 25
 184 138 l 25
 256 483 l 25
 211 654 l 25
 313 702 l 29
EndSplineSet
EndChar

StartChar: G
Encoding: 71 71 23
Width: 1000
Flags: H
LayerCount: 2
Fore
SplineSet
577 324 m 29
 784 291 l 25
 832 207 l 25
 787 0 l 25
 781 -165 l 25
 715 -168 l 25
 712 -33 l 25
 754 60 l 25
 757 198 l 25
 694 255 l 25
 616 246 l 25
 556 327 l 25
 577 324 l 29
691 594 m 25
 412 636 l 25
 211 483 l 25
 175 204 l 25
 316 0 l 25
 499 -117 l 25
 742 18 l 25
 724 129 l 25
 646 132 l 25
 478 69 l 25
 268 255 l 25
 352 408 l 25
 508 594 l 25
 592 561 l 25
 691 594 l 25
EndSplineSet
EndChar

StartChar: H
Encoding: 72 72 24
Width: 1000
Flags: H
LayerCount: 2
Fore
SplineSet
247 639 m 29
 208 378 l 25
 211 30 l 25
 220 -102 l 25
 328 -102 l 25
 370 78 l 25
 346 243 l 25
 367 351 l 25
 505 327 l 25
 646 267 l 25
 604 90 l 25
 610 -78 l 25
 712 -51 l 25
 769 66 l 25
 748 303 l 25
 739 444 l 25
 640 444 l 25
 499 441 l 25
 406 411 l 25
 322 459 l 25
 739 444 l 25
 736 633 l 25
 649 627 l 25
 634 540 l 25
 529 507 l 25
 472 516 l 25
 358 504 l 25
 331 657 l 25
 247 639 l 29
EndSplineSet
EndChar

StartChar: I
Encoding: 73 73 25
Width: 1000
Flags: H
LayerCount: 2
Fore
SplineSet
616 663 m 29
 592 393 l 25
 598 75 l 25
 511 -72 l 25
 409 -33 l 25
 328 186 l 25
 370 297 l 25
 451 528 l 25
 532 678 l 25
 616 663 l 29
EndSplineSet
EndChar

StartChar: J
Encoding: 74 74 26
Width: 1000
Flags: H
LayerCount: 2
Fore
SplineSet
781 576 m 29
 757 231 l 25
 715 -117 l 25
 340 -192 l 25
 217 -39 l 25
 157 240 l 25
 238 273 l 25
 280 141 l 25
 334 36 l 25
 505 21 l 25
 553 222 l 25
 565 489 l 25
 610 621 l 25
 682 699 l 25
 820 645 l 25
 781 576 l 29
EndSplineSet
EndChar

StartChar: K
Encoding: 75 75 27
Width: 1000
Flags: H
LayerCount: 2
Fore
SplineSet
484 273 m 29
 691 141 l 25
 754 9 l 25
 769 -123 l 25
 733 -186 l 25
 568 -36 l 25
 577 63 l 25
 499 213 l 25
 484 273 l 29
664 570 m 25
 391 387 l 25
 436 336 l 25
 562 402 l 25
 664 495 l 25
 664 570 l 25
238 648 m 25
 208 330 l 25
 274 -60 l 25
 259 -216 l 25
 427 -165 l 25
 490 75 l 25
 421 306 l 25
 355 585 l 25
 214 654 l 25
 238 648 l 25
EndSplineSet
EndChar

StartChar: L
Encoding: 76 76 28
Width: 1000
Flags: H
LayerCount: 2
Fore
SplineSet
238 726 m 29
 208 444 l 25
 223 168 l 25
 259 0 l 25
 637 -15 l 25
 763 66 l 25
 661 195 l 25
 535 177 l 25
 343 258 l 25
 352 414 l 25
 322 624 l 25
 289 729 l 25
 238 726 l 29
EndSplineSet
EndChar

StartChar: M
Encoding: 77 77 29
Width: 1000
Flags: H
LayerCount: 2
Fore
SplineSet
229 675 m 29
 145 222 l 25
 97 0 l 25
 220 -12 l 25
 271 183 l 25
 343 456 l 25
 415 180 l 25
 556 438 l 25
 703 0 l 25
 793 126 l 25
 790 333 l 25
 634 510 l 25
 412 744 l 25
 475 408 l 25
 376 549 l 25
 229 675 l 29
EndSplineSet
EndChar

StartChar: N
Encoding: 78 78 30
Width: 1000
Flags: H
LayerCount: 2
Fore
SplineSet
193 651 m 29
 205 381 l 25
 169 45 l 25
 304 54 l 25
 316 174 l 25
 313 459 l 25
 487 105 l 25
 571 102 l 25
 550 330 l 25
 565 567 l 25
 577 687 l 25
 463 678 l 25
 463 543 l 25
 469 381 l 25
 382 462 l 25
 361 621 l 25
 250 672 l 25
 193 651 l 29
EndSplineSet
EndChar

StartChar: O
Encoding: 79 79 31
Width: 528
Flags: HW
LayerCount: 2
Fore
SplineSet
224 736 m 1
 -24 356 l 1
 301 160 l 1
 401 156 l 1
 528 254 l 1
 558 536 l 1
 224 736 l 1
242 628 m 5
 492 482 l 1
 338 194 l 1
 64 384 l 1
 242 628 l 5
EndSplineSet
EndChar

StartChar: P
Encoding: 80 80 32
Width: 528
Flags: HW
LayerCount: 2
Fore
SplineSet
82 327 m 29
 109 24 l 25
 127 -144 l 25
 211 -171 l 25
 220 -15 l 25
 121 204 l 25
 121 315 l 25
 82 327 l 29
183 578 m 25
 97 364 l 25
 301 160 l 25
 401 156 l 25
 461 340 l 25
 433 456 l 25
 183 578 l 25
224 484 m 25
 396 370 l 25
 338 194 l 25
 200 368 l 25
 224 484 l 25
EndSplineSet
EndChar

StartChar: Q
Encoding: 81 81 33
Width: 528
Flags: HW
LayerCount: 2
Fore
SplineSet
287 385 m 29
 632 79 l 25
 680 208 l 25
 341 406 l 25
 287 385 l 29
224 736 m 1
 -24 356 l 1
 301 160 l 1
 401 156 l 1
 528 254 l 1
 558 536 l 1
 224 736 l 1
242 628 m 1
 492 482 l 1
 338 194 l 1
 64 384 l 1
 242 628 l 1
EndSplineSet
EndChar

StartChar: R
Encoding: 82 82 34
Width: 528
Flags: HW
LayerCount: 2
Fore
SplineSet
354 130 m 29
 550 -30 l 25
 600 42 l 25
 512 144 l 25
 448 136 l 25
 354 130 l 29
80 356 m 25
 80 -36 l 25
 230 -12 l 25
 280 156 l 25
 80 356 l 25
183 578 m 25
 97 364 l 25
 301 160 l 25
 401 156 l 25
 461 340 l 25
 433 456 l 25
 183 578 l 25
224 484 m 25
 396 370 l 25
 338 194 l 25
 200 368 l 25
 224 484 l 25
EndSplineSet
EndChar

StartChar: S
Encoding: 83 83 35
Width: 1000
Flags: H
LayerCount: 2
Fore
SplineSet
565 732 m 29
 166 564 l 25
 298 246 l 25
 544 246 l 25
 694 165 l 25
 583 12 l 25
 430 -66 l 25
 244 -135 l 25
 766 -171 l 25
 931 90 l 25
 823 456 l 25
 592 474 l 25
 409 456 l 25
 430 618 l 25
 565 732 l 29
EndSplineSet
EndChar

StartChar: T
Encoding: 84 84 36
Width: 1000
Flags: H
LayerCount: 2
Fore
SplineSet
37 717 m 29
 661 645 l 25
 832 615 l 25
 847 366 l 25
 724 342 l 25
 556 333 l 25
 520 165 l 25
 556 63 l 25
 565 -78 l 25
 571 -186 l 25
 409 -189 l 25
 223 -87 l 25
 169 93 l 25
 340 258 l 25
 370 411 l 25
 163 498 l 25
 -23 570 l 25
 37 717 l 29
EndSplineSet
EndChar

StartChar: U
Encoding: 85 85 37
Width: 1000
Flags: H
LayerCount: 2
Fore
SplineSet
232 666 m 29
 205 297 l 25
 181 66 l 25
 454 -105 l 25
 679 -24 l 25
 808 231 l 25
 787 570 l 25
 730 666 l 25
 613 603 l 25
 628 402 l 25
 649 222 l 25
 544 81 l 25
 325 99 l 25
 283 315 l 25
 292 504 l 25
 274 663 l 25
 232 666 l 29
EndSplineSet
EndChar

StartChar: V
Encoding: 86 86 38
Width: 1000
Flags: H
LayerCount: 2
Fore
SplineSet
193 618 m 29
 511 60 l 25
 742 0 l 25
 874 339 l 25
 823 603 l 25
 655 672 l 25
 760 369 l 25
 733 195 l 25
 589 180 l 25
 337 486 l 25
 193 618 l 29
EndSplineSet
EndChar

StartChar: W
Encoding: 87 87 39
Width: 1000
Flags: H
LayerCount: 2
Fore
SplineSet
-44 603 m 29
 160 300 l 25
 316 24 l 25
 562 57 l 25
 544 240 l 25
 694 468 l 25
 763 375 l 25
 868 135 l 25
 916 126 l 25
 892 624 l 25
 850 717 l 25
 739 657 l 25
 769 567 l 25
 838 378 l 25
 733 510 l 25
 577 603 l 25
 568 507 l 25
 448 360 l 25
 442 243 l 25
 250 456 l 25
 67 633 l 25
 -62 615 l 25
 -44 603 l 29
EndSplineSet
EndChar

StartChar: X
Encoding: 88 88 40
Width: 1000
Flags: H
LayerCount: 2
Fore
SplineSet
349 468 m 29
 329 420 l 25
 481 362 l 25
 479 418 l 25
 349 468 l 29
145 153 m 25
 451 675 l 25
 658 606 l 25
 586 501 l 25
 415 291 l 25
 388 153 l 25
 157 126 l 25
 145 153 l 25
154 519 m 25
 661 141 l 25
 787 216 l 25
 787 372 l 25
 283 507 l 25
 154 519 l 25
EndSplineSet
EndChar

StartChar: Y
Encoding: 89 89 41
Width: 1000
Flags: H
LayerCount: 2
Fore
SplineSet
436 465 m 29
 367 114 l 25
 106 144 l 25
 535 84 l 25
 694 240 l 25
 580 474 l 25
 436 465 l 29
259 693 m 25
 520 459 l 25
 712 627 l 25
 640 696 l 25
 499 654 l 25
 259 693 l 25
EndSplineSet
EndChar

StartChar: bracketleft
Encoding: 91 91 42
Width: 1000
Flags: H
LayerCount: 2
Fore
SplineSet
292 684 m 29
 556 558 l 25
 478 447 l 25
 298 459 l 25
 271 267 l 25
 310 117 l 25
 331 -30 l 25
 598 27 l 25
 535 -105 l 25
 274 -117 l 25
 139 138 l 25
 166 399 l 25
 292 684 l 29
EndSplineSet
EndChar

StartChar: Z
Encoding: 90 90 43
Width: 1000
Flags: H
LayerCount: 2
Fore
SplineSet
247 657 m 29
 727 534 l 25
 799 225 l 25
 463 111 l 25
 274 15 l 25
 199 -54 l 25
 763 21 l 25
 883 -9 l 25
 829 -108 l 25
 631 -159 l 25
 202 -135 l 25
 49 -63 l 25
 142 123 l 25
 559 261 l 25
 580 384 l 25
 367 510 l 25
 247 657 l 29
EndSplineSet
EndChar

StartChar: backslash
Encoding: 92 92 44
Width: 1000
Flags: H
LayerCount: 2
Fore
SplineSet
208 -54 m 29
 199 -147 l 25
 256 -123 l 25
 295 -30 l 25
 235 0 l 25
 208 -18 l 25
 208 -54 l 29
256 210 m 25
 238 120 l 25
 271 105 l 25
 298 171 l 25
 289 231 l 25
 256 210 l 25
316 426 m 25
 274 333 l 25
 325 318 l 25
 343 387 l 25
 316 426 l 25
103 99 m 25
 499 90 l 25
 430 15 l 25
 313 0 l 25
 118 27 l 25
 82 111 l 25
 103 99 l 25
163 324 m 25
 559 288 l 25
 496 180 l 25
 289 255 l 25
 106 255 l 25
 145 327 l 25
 163 324 l 25
166 690 m 25
 304 507 l 25
 562 633 l 25
 628 417 l 25
 454 399 l 25
 301 471 l 25
 187 609 l 25
 142 711 l 25
 166 690 l 25
EndSplineSet
EndChar

StartChar: bracketright
Encoding: 93 93 45
Width: 1000
Flags: H
LayerCount: 2
Fore
SplineSet
274 654 m 29
 568 582 l 25
 613 375 l 25
 700 135 l 25
 601 -15 l 25
 541 -87 l 25
 373 -102 l 25
 214 -24 l 25
 277 48 l 25
 409 0 l 25
 499 0 l 25
 538 117 l 25
 487 303 l 25
 472 525 l 25
 373 570 l 25
 274 654 l 29
EndSplineSet
EndChar

StartChar: underscore
Encoding: 95 95 46
Width: 1000
Flags: H
LayerCount: 2
Fore
SplineSet
214 -36 m 29
 262 -159 l 25
 523 -159 l 25
 733 -81 l 25
 586 -15 l 25
 295 -33 l 25
 187 -36 l 25
 214 -36 l 29
EndSplineSet
EndChar

StartChar: asciicircum
Encoding: 94 94 47
Width: 1000
Flags: H
LayerCount: 2
Fore
SplineSet
367 567 m 29
 208 327 l 25
 157 180 l 25
 310 171 l 25
 376 327 l 25
 505 243 l 25
 550 330 l 25
 367 567 l 29
EndSplineSet
EndChar

StartChar: grave
Encoding: 96 96 48
Width: 1000
Flags: H
LayerCount: 2
Fore
SplineSet
442 669 m 29
 622 501 l 25
 598 414 l 25
 712 447 l 25
 661 615 l 25
 442 669 l 29
EndSplineSet
EndChar

StartChar: a
Encoding: 97 97 49
Width: 1000
Flags: H
LayerCount: 2
Fore
SplineSet
346 342 m 29
 175 171 l 25
 181 -87 l 25
 364 -102 l 25
 424 39 l 25
 346 342 l 29
649 375 m 25
 514 111 l 25
 730 189 l 25
 730 381 l 25
 631 372 l 25
 649 375 l 25
124 591 m 25
 532 639 l 25
 667 408 l 25
 697 273 l 25
 772 345 l 25
 688 546 l 25
 574 675 l 25
 373 684 l 25
 100 621 l 25
 124 591 l 25
427 363 m 25
 259 150 l 25
 409 -84 l 25
 628 -78 l 25
 694 258 l 25
 427 363 l 25
EndSplineSet
EndChar

StartChar: b
Encoding: 98 98 50
Width: 1000
Flags: H
LayerCount: 2
Fore
SplineSet
283 678 m 29
 304 300 l 25
 301 9 l 25
 289 -129 l 25
 562 -69 l 25
 778 57 l 25
 754 279 l 25
 586 402 l 25
 442 342 l 25
 328 300 l 25
 334 180 l 25
 340 0 l 25
 538 18 l 25
 748 174 l 25
 586 207 l 25
 466 195 l 25
 427 186 l 25
 340 483 l 25
 283 678 l 29
EndSplineSet
EndChar

StartChar: c
Encoding: 99 99 51
Width: 1000
Flags: H
LayerCount: 2
Fore
SplineSet
736 594 m 29
 331 489 l 25
 127 111 l 25
 370 -126 l 25
 685 0 l 25
 787 228 l 25
 475 219 l 25
 310 126 l 25
 544 522 l 25
 736 594 l 29
EndSplineSet
EndChar

StartChar: d
Encoding: 100 100 52
Width: 1000
Flags: H
LayerCount: 2
Fore
SplineSet
355 577 m 29
 484 490 l 25
 331 124 l 25
 277 403 l 25
 355 577 l 29
589 837 m 25
 511 291 l 25
 616 -87 l 25
 160 120 l 25
 73 459 l 25
 340 528 l 25
 325 243 l 25
 466 525 l 25
 589 837 l 25
EndSplineSet
EndChar

StartChar: e
Encoding: 101 101 53
Width: 1000
Flags: H
LayerCount: 2
Fore
SplineSet
367 419 m 29
 646 419 l 25
 385 53 l 25
 349 419 l 25
 367 419 l 29
373 413 m 25
 559 398 l 25
 511 89 l 25
 373 413 l 25
370 338 m 25
 310 155 l 25
 508 104 l 25
 541 332 l 25
 370 338 l 25
463 317 m 25
 400 188 l 25
 535 128 l 25
 544 275 l 25
 463 350 l 25
 445 317 l 25
 463 317 l 25
382 336 m 25
 769 612 l 25
 433 639 l 25
 94 435 l 25
 16 57 l 25
 319 -81 l 25
 961 -168 l 25
 775 81 l 25
 430 138 l 25
 247 198 l 25
 289 432 l 25
 436 531 l 25
 382 336 l 25
EndSplineSet
EndChar

StartChar: f
Encoding: 102 102 54
Width: 1000
Flags: H
LayerCount: 2
Fore
SplineSet
455 -195 m 29
 563 -168 l 25
 548 192 l 25
 401 90 l 25
 437 -189 l 25
 455 -195 l 29
442 531 m 25
 400 351 l 25
 448 285 l 25
 529 402 l 25
 511 519 l 25
 421 537 l 25
 442 531 l 25
667 747 m 25
 448 675 l 25
 376 369 l 25
 439 117 l 17
 452.588235294 84 l 1
 460 66 l 9
 574 174 l 25
 523 276 l 25
 553 486 l 25
 571 606 l 25
 667 747 l 25
253 540 m 25
 679 609 l 25
 664 270 l 25
 295 273 l 25
 253 486 l 25
 253 540 l 25
EndSplineSet
EndChar

StartChar: g
Encoding: 103 103 55
Width: 1000
Flags: H
LayerCount: 2
Fore
SplineSet
634 582 m 29
 367 537 l 25
 457 330 l 25
 541 279 l 25
 739 336 l 25
 715 204 l 25
 736 48 l 25
 697 -96 l 25
 472 -21 l 25
 367 54 l 25
 223 195 l 25
 217 -9 l 25
 340 -156 l 25
 733 -168 l 25
 841 -33 l 25
 817 336 l 25
 763 549 l 25
 613 576 l 25
 634 582 l 29
EndSplineSet
EndChar

StartChar: h
Encoding: 104 104 56
Width: 1000
Flags: H
LayerCount: 2
Fore
SplineSet
196 639 m 29
 211 174 l 25
 166 -168 l 25
 301 -90 l 25
 334 222 l 25
 460 111 l 25
 460 -75 l 25
 505 -114 l 25
 610 201 l 25
 316 357 l 25
 268 642 l 25
 196 639 l 29
EndSplineSet
EndChar

StartChar: i
Encoding: 105 105 57
Width: 1000
Flags: H
LayerCount: 2
Fore
SplineSet
223 750 m 29
 307 627 l 25
 529 618 l 25
 526 741 l 25
 328 735 l 25
 205 753 l 25
 223 750 l 29
313 459 m 25
 271 63 l 25
 325 -162 l 25
 607 108 l 25
 556 486 l 25
 400 468 l 25
 313 459 l 25
EndSplineSet
EndChar

StartChar: j
Encoding: 106 106 58
Width: 1000
Flags: H
LayerCount: 2
Fore
SplineSet
628 750 m 29
 556 573 l 25
 898 630 l 25
 862 723 l 25
 628 750 l 29
712 528 m 25
 547 126 l 25
 565 -153 l 25
 217 -60 l 25
 73 210 l 25
 232 174 l 25
 436 60 l 25
 712 528 l 25
EndSplineSet
EndChar

StartChar: k
Encoding: 107 107 59
Width: 1000
Flags: H
LayerCount: 2
Fore
SplineSet
793 405 m 29
 595 267 l 25
 586 138 l 25
 682 -66 l 25
 799 -123 l 25
 832 54 l 25
 682 144 l 25
 775 411 l 25
 793 405 l 29
379 711 m 25
 331 150 l 25
 388 -132 l 25
 568 48 l 25
 472 366 l 25
 379 711 l 25
EndSplineSet
EndChar

StartChar: l
Encoding: 108 108 60
Width: 1000
Flags: H
LayerCount: 2
Fore
SplineSet
562 726 m 29
 373 714 l 25
 472 660 l 25
 586 375 l 25
 565 306 l 25
 601 534 l 25
 562 726 l 29
376 723 m 25
 397 270 l 25
 250 -192 l 25
 448 -138 l 25
 529 -30 l 25
 574 279 l 25
 475 549 l 25
 376 723 l 25
EndSplineSet
EndChar

StartChar: m
Encoding: 109 109 61
Width: 1000
Flags: H
LayerCount: 2
Fore
SplineSet
463 186 m 29
 565 390 l 25
 661 450 l 25
 829 294 l 25
 856 84 l 25
 817 -84 l 25
 718 15 l 25
 712 159 l 25
 661 297 l 25
 493 204 l 25
 463 186 l 29
247 195 m 25
 304 417 l 25
 361 312 l 25
 478 87 l 25
 496 -48 l 25
 430 -27 l 25
 364 168 l 25
 223 210 l 25
 247 195 l 25
112 543 m 25
 136 78 l 25
 220 -81 l 25
 247 84 l 25
 190 438 l 25
 112 543 l 25
EndSplineSet
EndChar

StartChar: n
Encoding: 110 110 62
Width: 1000
Flags: H
LayerCount: 2
Fore
SplineSet
259 225 m 29
 502 507 l 25
 685 216 l 25
 766 -87 l 25
 658 -129 l 25
 580 105 l 25
 475 288 l 25
 235 156 l 25
 259 225 l 29
97 564 m 25
 151 129 l 25
 106 -63 l 25
 184 -72 l 25
 244 240 l 25
 226 495 l 25
 97 564 l 25
EndSplineSet
EndChar

StartChar: o
Encoding: 111 111 63
Width: 1000
Flags: H
LayerCount: 2
Fore
SplineSet
401 356 m 1
 295 135 l 1
 328 -117 l 25
 538 63 l 1
 557 368 l 1
 401 356 l 1
550 546 m 25
 94 327 l 25
 193 -123 l 25
 619 -84 l 25
 814 168 l 25
 550 546 l 25
EndSplineSet
EndChar

StartChar: p
Encoding: 112 112 64
Width: 1000
Flags: H
LayerCount: 2
Fore
SplineSet
214 246 m 25
 133 -105 l 25
 169 -192 l 25
 265 -168 l 25
 241 0 l 1
 319 224 l 25
 211 288 l 1
 214 246 l 25
562 687 m 1
 688 515 l 29
 802 183 l 1
 439 42 l 25
 220 285 l 25
 541 684 l 25
 562 687 l 1
EndSplineSet
EndChar

StartChar: q
Encoding: 113 113 65
Width: 1000
Flags: H
LayerCount: 2
Fore
SplineSet
865 642 m 1
 706 49 l 1
 544 -72 l 1
 676 -165 l 25
 805 96 l 1
 865 642 l 1
622 729 m 25
 355 675 l 1
 514 421 l 5
 736 298 l 1
 865 642 l 1
 622 729 l 25
EndSplineSet
EndChar

StartChar: r
Encoding: 114 114 66
Width: 1000
Flags: H
LayerCount: 2
Fore
SplineSet
397 360 m 29
 622 675 l 25
 784 531 l 25
 667 411 l 25
 397 360 l 29
151 669 m 25
 124 159 l 25
 199 -195 l 25
 394 117 l 25
 286 435 l 25
 151 669 l 25
EndSplineSet
EndChar

StartChar: s
Encoding: 115 115 67
Width: 1000
Flags: H
LayerCount: 2
Fore
SplineSet
493 693 m 29
 -131 510 l 25
 244 345 l 25
 355 66 l 25
 91 39 l 25
 187 -126 l 25
 409 15 l 25
 520 240 l 25
 268 432 l 25
 493 693 l 29
EndSplineSet
EndChar

StartChar: t
Encoding: 116 116 68
Width: 1000
Flags: H
LayerCount: 2
Fore
SplineSet
517 195 m 29
 742 108 l 25
 670 15 l 25
 469 12 l 25
 397 177 l 25
 475 192 l 25
 517 195 l 29
466 819 m 25
 343 474 l 25
 208 0 l 25
 424 3 l 25
 403 138 l 25
 364 219 l 25
 499 573 l 25
 526 747 l 25
 466 819 l 25
166 582 m 25
 634 549 l 25
 700 657 l 25
 313 666 l 25
 145 618 l 25
 148 582 l 25
 166 582 l 25
EndSplineSet
EndChar

StartChar: u
Encoding: 117 117 69
Width: 1000
Flags: H
LayerCount: 2
Fore
SplineSet
238 642 m 29
 112 270 l 25
 277 -15 l 25
 592 0 l 25
 772 213 l 25
 703 585 l 25
 607 606 l 25
 628 426 l 25
 589 195 l 25
 703 21 l 25
 817 -54 l 25
 844 -27 l 25
 706 69 l 25
 499 72 l 25
 217 126 l 25
 205 300 l 25
 220 642 l 25
 238 642 l 29
EndSplineSet
EndChar

StartChar: v
Encoding: 118 118 70
Width: 1000
Flags: H
LayerCount: 2
Fore
SplineSet
439 99 m 29
 559 -108 l 25
 685 -237 l 25
 733 36 l 25
 439 99 l 29
247 597 m 25
 328 258 l 25
 415 48 l 25
 688 -30 l 25
 697 297 l 25
 739 507 l 25
 667 633 l 25
 574 585 l 25
 658 357 l 25
 625 219 l 25
 577 111 l 25
 412 210 l 25
 247 597 l 25
EndSplineSet
EndChar

StartChar: w
Encoding: 119 119 71
Width: 1000
Flags: H
LayerCount: 2
Fore
SplineSet
79 633 m 29
 70 279 l 25
 133 30 l 25
 352 -12 l 25
 367 210 l 25
 397 429 l 25
 535 366 l 25
 616 51 l 25
 592 -45 l 25
 784 117 l 25
 775 483 l 25
 523 567 l 25
 601 381 l 25
 238 258 l 25
 79 633 l 29
EndSplineSet
EndChar

StartChar: x
Encoding: 120 120 72
Width: 1000
Flags: H
LayerCount: 2
Fore
SplineSet
631 648 m 29
 184 180 l 25
 247 84 l 25
 463 318 l 25
 484 570 l 25
 613 657 l 25
 631 648 l 29
103 507 m 25
 319 162 l 25
 628 54 l 25
 388 408 l 25
 181 477 l 25
 103 507 l 25
EndSplineSet
EndChar

StartChar: y
Encoding: 121 121 73
Width: 1000
Flags: H
LayerCount: 2
Fore
SplineSet
538 624 m 29
 511 486 l 25
 673 462 l 25
 538 624 l 29
334 600 m 25
 268 354 l 25
 583 336 l 25
 646 579 l 25
 508 -54 l 25
 526 444 l 25
 331 411 l 25
 334 600 l 25
EndSplineSet
EndChar

StartChar: z
Encoding: 122 122 74
Width: 1000
Flags: H
LayerCount: 2
Fore
SplineSet
337 591 m 29
 883 522 l 25
 502 39 l 25
 199 -90 l 25
 742 -108 l 25
 910 -51 l 25
 796 75 l 25
 622 51 l 25
 502 39 l 25
 697 180 l 25
 883 471 l 25
 901 633 l 25
 418 636 l 25
 337 591 l 29
EndSplineSet
EndChar

StartChar: braceleft
Encoding: 123 123 75
Width: 1000
Flags: H
LayerCount: 2
Fore
SplineSet
379 768 m 29
 262 738 l 25
 196 636 l 25
 190 465 l 25
 196 273 l 25
 196 153 l 25
 46 153 l 25
 106 51 l 25
 187 18 l 25
 256 -54 l 25
 352 -159 l 25
 460 -135 l 25
 403 -27 l 25
 241 216 l 25
 247 381 l 25
 271 585 l 25
 334 636 l 25
 367 720 l 25
 379 768 l 29
EndSplineSet
EndChar

StartChar: braceright
Encoding: 125 125 76
Width: 1000
Flags: H
LayerCount: 2
Fore
SplineSet
415 768 m 29
 589 642 l 25
 604 435 l 25
 622 291 l 25
 643 102 l 25
 721 60 l 25
 733 -30 l 25
 661 -99 l 25
 526 -117 l 25
 505 -192 l 25
 448 -225 l 25
 310 -216 l 25
 154 -51 l 25
 373 96 l 25
 451 213 l 25
 439 510 l 25
 442 618 l 25
 415 768 l 29
EndSplineSet
EndChar

StartChar: bar
Encoding: 124 124 77
Width: 1000
Flags: H
LayerCount: 2
Fore
SplineSet
400 690 m 29
 418 204 l 25
 469 -186 l 25
 580 -204 l 25
 571 96 l 25
 502 477 l 25
 370 687 l 25
 400 690 l 29
EndSplineSet
EndChar

StartChar: asciitilde
Encoding: 126 126 78
Width: 1000
Flags: H
LayerCount: 2
Fore
SplineSet
274 432 m 29
 565 459 l 25
 646 363 l 25
 781 354 l 25
 817 444 l 25
 856 297 l 25
 742 291 l 25
 577 288 l 25
 529 390 l 25
 292 411 l 25
 274 432 l 29
EndSplineSet
EndChar

StartChar: exclam
Encoding: 33 33 79
Width: 1000
Flags: H
LayerCount: 2
Fore
SplineSet
466 84 m 29
 370 -33 l 25
 445 -108 l 25
 607 39 l 25
 466 84 l 29
376 711 m 25
 460 336 l 25
 439 219 l 25
 589 249 l 25
 553 504 l 25
 460 660 l 25
 376 711 l 25
EndSplineSet
EndChar

StartChar: quotedbl
Encoding: 34 34 80
Width: 1000
Flags: H
LayerCount: 2
Fore
SplineSet
388 600 m 29
 388 483 l 25
 439 486 l 25
 388 600 l 29
301 585 m 25
 295 525 l 25
 340 501 l 25
 301 585 l 25
EndSplineSet
EndChar

StartChar: numbersign
Encoding: 35 35 81
Width: 1000
Flags: H
LayerCount: 2
Fore
SplineSet
655 681 m 29
 523 -27 l 25
 607 -15 l 25
 655 681 l 29
517 693 m 25
 253 -12 l 25
 355 -6 l 25
 517 693 l 25
229 234 m 25
 160 99 l 25
 682 132 l 25
 940 195 l 25
 211 240 l 25
 229 234 l 25
301 459 m 25
 733 543 l 25
 742 375 l 25
 439 366 l 25
 292 366 l 25
 301 459 l 25
EndSplineSet
EndChar

StartChar: dollar
Encoding: 36 36 82
Width: 1000
Flags: H
LayerCount: 2
Fore
SplineSet
463 792 m 29
 451 252 l 25
 412 -36 l 25
 406 -234 l 25
 568 -180 l 25
 598 135 l 25
 589 441 l 25
 526 798 l 25
 463 792 l 29
709 726 m 25
 262 594 l 25
 235 255 l 25
 634 285 l 25
 754 108 l 25
 604 -9 l 25
 388 -84 l 25
 214 -54 l 25
 193 -156 l 25
 589 -126 l 25
 790 -42 l 25
 811 216 l 25
 703 348 l 25
 379 381 l 25
 373 552 l 25
 709 726 l 25
EndSplineSet
EndChar

StartChar: percent
Encoding: 37 37 83
Width: 1000
Flags: H
LayerCount: 2
Fore
SplineSet
865 348 m 29
 520 0 l 25
 688 -126 l 25
 865 348 l 29
682 735 m 25
 352 228 l 25
 91 69 l 25
 91 -99 l 25
 415 114 l 25
 640 369 l 25
 682 735 l 25
151 684 m 25
 0 465 l 25
 187 402 l 25
 322 585 l 25
 133 678 l 25
 151 684 l 25
EndSplineSet
EndChar

StartChar: ampersand
Encoding: 38 38 84
Width: 1000
Flags: H
LayerCount: 2
Fore
SplineSet
442 393 m 29
 727 57 l 25
 850 -27 l 25
 751 -63 l 25
 442 393 l 29
553 267 m 25
 808 501 l 25
 886 429 l 25
 754 276 l 25
 535 267 l 25
 553 267 l 25
133 339 m 25
 7 -51 l 25
 220 -48 l 25
 481 0 l 25
 529 186 l 25
 502 366 l 25
 133 339 l 25
472 672 m 25
 169 645 l 25
 79 441 l 17
 340 356.558823529 l 1
 385 342 l 9
 490 612 l 25
 454 669 l 25
 472 672 l 25
EndSplineSet
EndChar

StartChar: quotesingle
Encoding: 39 39 85
Width: 1000
Flags: H
LayerCount: 2
Fore
SplineSet
364 579 m 29
 385 507 l 25
 460 585 l 25
 364 579 l 29
EndSplineSet
EndChar

StartChar: parenleft
Encoding: 40 40 86
Width: 1000
Flags: H
LayerCount: 2
Fore
SplineSet
463 714 m 29
 193 516 l 25
 121 105 l 25
 268 -132 l 25
 457 -57 l 25
 280 231 l 25
 352 501 l 25
 463 714 l 29
EndSplineSet
EndChar

StartChar: parenright
Encoding: 41 41 87
Width: 1000
Flags: H
LayerCount: 2
Fore
SplineSet
412 675 m 29
 646 333 l 25
 559 18 l 25
 358 -261 l 25
 640 -168 l 25
 760 153 l 25
 720 533 l 25
 412 675 l 29
EndSplineSet
EndChar

StartChar: asterisk
Encoding: 42 42 88
Width: 1000
Flags: H
LayerCount: 2
Fore
SplineSet
508 426 m 29
 520 516 l 25
 424 534 l 25
 409 510 l 25
 508 426 l 29
475 720 m 25
 424 576 l 25
 502 504 l 25
 460 606 l 25
 478 687 l 25
 475 720 l 25
454 714 m 25
 295 441 l 25
 382 483 l 25
 454 714 l 25
310 621 m 25
 574 636 l 25
 562 558 l 17
 418 543.6 l 1
 382 540 l 9
 310 621 l 25
EndSplineSet
EndChar

StartChar: plus
Encoding: 43 43 89
Width: 1000
Flags: H
LayerCount: 2
Fore
SplineSet
457 645 m 29
 322 57 l 25
 394 30 l 25
 457 645 l 29
265 522 m 25
 775 402 l 25
 538 213 l 25
 271 339 l 25
 265 522 l 25
EndSplineSet
EndChar

StartChar: comma
Encoding: 44 44 90
Width: 1000
Flags: H
LayerCount: 2
Fore
SplineSet
427 27 m 29
 322 -159 l 25
 487 -159 l 25
 427 27 l 29
EndSplineSet
EndChar

StartChar: hyphen
Encoding: 45 45 91
Width: 1000
Flags: H
LayerCount: 2
Fore
SplineSet
466 345 m 29
 709 345 l 25
 730 204 l 25
 241 264 l 25
 466 345 l 29
EndSplineSet
EndChar

StartChar: period
Encoding: 46 46 92
Width: 1000
Flags: H
LayerCount: 2
Fore
SplineSet
400 -9 m 29
 379 -96 l 25
 484 -87 l 25
 439 36 l 25
 400 -9 l 29
EndSplineSet
EndChar

StartChar: slash
Encoding: 47 47 93
Width: 1000
Flags: H
LayerCount: 2
Fore
SplineSet
685 765 m 29
 400 -87 l 25
 496 -111 l 25
 619 114 l 25
 676 441 l 25
 685 765 l 29
EndSplineSet
EndChar
